<svg width="1600" height="1000" viewBox="0 0 1600 1000" fill="none" xmlns="http://www.w3.org/2000/svg">
  <rect width="1600" height="1000" fill="#07130F"/>
  <circle cx="1160" cy="260" r="220" fill="#0FBF74" opacity="0.18"/>
  <circle cx="1360" cy="680" r="280" fill="#1868DB" opacity="0.16"/>
  <rect x="890" y="180" width="440" height="320" rx="28" fill="#FFFFFF" opacity="0.1"/>
  <rect x="930" y="230" width="210" height="18" rx="9" fill="#CCFF5F"/>
  <rect x="930" y="286" width="340" height="18" rx="9" fill="#FFFFFF" opacity="0.45"/>
  <rect x="930" y="342" width="280" height="18" rx="9" fill="#FFFFFF" opacity="0.28"/>
  <path d="M930 438C990 380 1042 408 1090 350C1148 280 1220 302 1290 246" stroke="#0FBF74" stroke-width="18" stroke-linecap="round"/>
  <rect x="1040" y="580" width="360" height="210" rx="26" fill="#FFFFFF" opacity="0.12"/>
  <rect x="1088" y="708" width="42" height="42" rx="12" fill="#0FBF74"/>
  <rect x="1158" y="656" width="42" height="94" rx="12" fill="#CCFF5F"/>
  <rect x="1228" y="620" width="42" height="130" rx="12" fill="#1868DB"/>
  <rect x="1298" y="674" width="42" height="76" rx="12" fill="#F7FAF8" opacity="0.75"/>
</svg>
