<svg width="1600" height="1000" viewBox="0 0 1600 1000" fill="none" xmlns="http://www.w3.org/2000/svg">
  <rect width="1600" height="1000" fill="#0B1020"/>
  <circle cx="1240" cy="250" r="240" fill="#5D7CFF" opacity="0.22"/>
  <circle cx="1370" cy="720" r="300" fill="#14B87A" opacity="0.12"/>
  <rect x="880" y="165" width="430" height="520" rx="30" fill="#FFFFFF" opacity="0.11"/>
  <rect x="928" y="220" width="250" height="22" rx="11" fill="#9DB2FF"/>
  <rect x="928" y="290" width="330" height="16" rx="8" fill="#FFFFFF" opacity="0.45"/>
  <rect x="928" y="335" width="280" height="16" rx="8" fill="#FFFFFF" opacity="0.30"/>
  <rect x="928" y="380" width="360" height="16" rx="8" fill="#FFFFFF" opacity="0.36"/>
  <rect x="928" y="470" width="92" height="92" rx="18" fill="#5D7CFF"/>
  <rect x="1048" y="470" width="92" height="92" rx="18" fill="#14B87A"/>
  <rect x="1168" y="470" width="92" height="92" rx="18" fill="#FF7A59"/>
  <path d="M930 650C1000 610 1055 626 1110 570C1165 515 1224 528 1290 480" stroke="#9DB2FF" stroke-width="16" stroke-linecap="round"/>
</svg>
